HIERARCHY
ROOT Hips
{
	OFFSET 0.000000 0.000000 0.000000
	CHANNELS 6 Xposition Yposition Zposition Xrotation Yrotation Zrotation
	JOINT LeftUpLeg_virtual
	{
		OFFSET 0.000000 0.000000 0.000000
		CHANNELS 3 Xrotation Yrotation Zrotation
		JOINT LeftUpLeg
		{
			OFFSET 15.427100 -6.655098 0.678600
			CHANNELS 3 Xrotation Yrotation Zrotation
			JOINT LeftLeg
			{
				OFFSET 4.081073 -39.591068 13.024000
				CHANNELS 3 Xrotation Yrotation Zrotation
				JOINT LeftFoot
				{
					OFFSET -4.081074 -37.707932 -15.979700
					CHANNELS 3 Xrotation Yrotation Zrotation
					JOINT LeftToeBase
					{
						OFFSET 5.346399 -15.068900 20.645000
						CHANNELS 3 Xrotation Yrotation Zrotation
						JOINT LeftToe_End
						{
							OFFSET 2.754700 0.931300 11.300900
							CHANNELS 3 Xrotation Yrotation Zrotation
							End Site
							{
								OFFSET 0 0 0
							}
						}
					}
				}
			}
		}
	}
	JOINT RightUpLeg_virtual
	{
		OFFSET 0.000000 0.000000 0.000000
		CHANNELS 3 Xrotation Yrotation Zrotation
		JOINT RightUpLeg
		{
			OFFSET -15.569500 -6.655098 0.678600
			CHANNELS 3 Xrotation Yrotation Zrotation
			JOINT RightLeg
			{
				OFFSET -4.081825 -39.591045 13.023800
				CHANNELS 3 Xrotation Yrotation Zrotation
				JOINT RightFoot
				{
					OFFSET 4.081824 -37.707954 -15.979600
					CHANNELS 3 Xrotation Yrotation Zrotation
					JOINT RightToeBase
					{
						OFFSET -5.346400 -15.068900 20.645000
						CHANNELS 3 Xrotation Yrotation Zrotation
						JOINT RightToe_End
						{
							OFFSET -2.754700 0.931300 11.300900
							CHANNELS 3 Xrotation Yrotation Zrotation
							End Site
							{
								OFFSET 0 0 0
							}
						}
					}
				}
			}
		}
	}
	JOINT Spine_virtual
	{
		OFFSET 0.000000 0.000000 0.000000
		CHANNELS 3 Xrotation Yrotation Zrotation
		JOINT Spine
		{
			OFFSET -0.279200 12.230698 -2.892100
			CHANNELS 3 Xrotation Yrotation Zrotation
			JOINT Spine1
			{
				OFFSET -0.232667 10.192268 -1.242267
				CHANNELS 3 Xrotation Yrotation Zrotation
				JOINT Spine1_split
				{
					OFFSET -0.232667 10.192268 -1.242267
					CHANNELS 3 Xrotation Yrotation Zrotation
					JOINT Spine2
					{
						OFFSET -0.232667 10.192268 -1.242267
						CHANNELS 3 Xrotation Yrotation Zrotation
						JOINT Neck_virtual
						{
							OFFSET 0.000000 0.000000 0.000000
							CHANNELS 3 Xrotation Yrotation Zrotation
							JOINT Neck
							{
								OFFSET -0.418800 17.814194 8.416900
								CHANNELS 3 Xrotation Yrotation Zrotation
								JOINT Head
								{
									OFFSET 0.000000 7.031097 3.806800
									CHANNELS 3 Xrotation Yrotation Zrotation
									JOINT HeadTop_End
									{
										OFFSET 0.000000 24.646606 12.978600
										CHANNELS 3 Xrotation Yrotation Zrotation
										End Site
										{
											OFFSET 0 0 0
										}
									}
								}
							}
						}
						JOINT LeftShoulder_virtual
						{
							OFFSET 0.000000 0.000000 0.000000
							CHANNELS 3 Xrotation Yrotation Zrotation
							JOINT LeftShoulder
							{
								OFFSET 8.476499 7.247704 -3.868750
								CHANNELS 3 Xrotation Yrotation Zrotation
								JOINT LeftShoulder_split
								{
									OFFSET 8.476499 7.247704 -3.868750
									CHANNELS 3 Xrotation Yrotation Zrotation
									JOINT LeftArm
									{
										OFFSET 9.308998 -2.777710 0.208600
										CHANNELS 3 Xrotation Yrotation Zrotation
										JOINT LeftForeArm
										{
											OFFSET 29.972298 0.000000 0.000000
											CHANNELS 3 Xrotation Yrotation Zrotation
											JOINT LeftHand
											{
												OFFSET 26.026505 0.000000 0.000000
												CHANNELS 3 Xrotation Yrotation Zrotation
												End Site
												{
													OFFSET 0 0 0
												}
											}
										}
									}
								}
							}
						}
						JOINT RightShoulder_virtual
						{
							OFFSET 0.000000 0.000000 0.000000
							CHANNELS 3 Xrotation Yrotation Zrotation
							JOINT RightShoulder
							{
								OFFSET -7.570500 7.247704 -3.868750
								CHANNELS 3 Xrotation Yrotation Zrotation
								JOINT RightShoulder_split
								{
									OFFSET -7.570500 7.247704 -3.868750
									CHANNELS 3 Xrotation Yrotation Zrotation
									JOINT RightArm
									{
										OFFSET -9.308998 -2.777710 0.208500
										CHANNELS 3 Xrotation Yrotation Zrotation
										JOINT RightForeArm
										{
											OFFSET -29.972300 0.000000 0.000000
											CHANNELS 3 Xrotation Yrotation Zrotation
											JOINT RightHand
											{
												OFFSET -26.026505 0.000000 0.000000
												CHANNELS 3 Xrotation Yrotation Zrotation
												End Site
												{
													OFFSET 0 0 0
												}
											}
										}
									}
								}
							}
						}
					}
				}
			}
		}
	}
}
MOTION
Frames: 6
Frame Time: 0.03333333
0.876133 87.532265 0.055462 0.000000 0.000000 0.000000 -1.595267 -25.986600 0.197712 -21.847750 24.496636 11.755335 22.499277 7.350585 12.373592 -3.506625 0.813882 -14.474638 1.351758 -0.177049 -2.337698 0.000000 0.000000 0.000000 -2.083565 -24.872564 0.333658 -11.523739 -18.985918 -8.690907 24.485129 -0.600953 -10.489354 -14.968595 -1.951797 11.259585 -0.909993 0.548448 0.841801 0.000000 0.000000 0.000000 -0.673676 -26.812198 0.103780 4.258826 -1.649212 1.121125 0.699920 -0.655055 0.152518 1.060392 -0.528217 0.330915 0.000000 0.000000 0.000000 0.778357 -0.789242 0.222609 -2.344205 1.489476 3.336105 17.565908 23.790280 -12.645045 0.000000 0.000000 0.000000 1.370342 -0.724556 0.178843 -0.672671 2.473643 4.315567 -1.539680 0.045473 -0.334371 -53.291052 -2.265722 -49.333671 -13.358208 -87.428539 -13.013203 0.000000 0.000000 0.000000 2.229088 -0.379511 0.047574 -1.104484 -11.039275 11.057527 0.877836 1.841935 0.146190 -63.700038 64.954129 79.218897 -21.373095 87.324310 21.364675 0.000000 0.000000 0.000000 
0.878119 87.518776 0.057510 0.000000 0.000000 0.000000 -1.565004 -25.993431 0.241553 -21.850947 24.561278 11.748079 22.519340 7.336401 12.361140 -3.529978 0.769167 -14.499971 1.346329 -0.173816 -2.337263 0.000000 0.000000 0.000000 -2.061334 -24.860890 0.374633 -11.608864 -19.171655 -8.708892 24.534728 -0.467728 -10.620563 -14.941527 -1.934611 11.286398 -0.965181 0.542949 0.829787 0.000000 0.000000 0.000000 -0.647002 -26.847406 0.140562 4.240860 -1.681511 1.134838 0.680760 -0.662343 0.151747 1.060541 -0.529824 0.322339 0.000000 0.000000 0.000000 0.766344 -0.797391 0.221689 -2.323786 1.506370 3.333954 17.582235 23.808393 -12.650374 0.000000 0.000000 0.000000 1.353655 -0.731276 0.179982 -0.674235 2.497157 4.229105 -1.550744 0.028016 -0.340311 -53.269882 -2.333366 -49.261787 -12.869602 -87.324091 -12.524628 0.000000 0.000000 0.000000 2.213002 -0.391227 0.044864 -1.101573 -11.046043 11.041499 0.892633 1.842670 0.146353 -63.739182 64.996995 79.188769 -21.264440 87.325335 21.268179 0.000000 0.000000 0.000000 
0.885213 87.501312 0.058342 0.000000 0.000000 0.000000 -1.534962 -25.999897 0.283465 -21.870870 24.645390 11.769341 22.541047 7.305652 12.342562 -3.556628 0.708421 -14.525920 1.333782 -0.173144 -2.333891 0.000000 0.000000 0.000000 -2.037263 -24.844277 0.415278 -11.709020 -19.371757 -8.734676 24.597519 -0.315903 -10.757084 -14.916310 -1.912965 11.320629 -1.003000 0.538285 0.816058 0.000000 0.000000 0.000000 -0.616647 -26.888459 0.181046 4.225429 -1.718792 1.147490 0.659080 -0.671637 0.151707 1.058382 -0.529435 0.313840 0.000000 0.000000 0.000000 0.757190 -0.807906 0.220516 -2.309111 1.519772 3.338159 17.594967 23.824711 -12.652938 0.000000 0.000000 0.000000 1.336926 -0.741071 0.181119 -0.672082 2.507661 4.142731 -1.559384 0.017875 -0.339552 -53.270227 -2.397203 -49.176071 -12.362615 -87.233100 -12.019880 0.000000 0.000000 0.000000 2.197610 -0.404653 0.043016 -1.097532 -11.035847 11.012358 0.896156 1.859099 0.144926 -63.755547 65.010868 79.150315 -21.203252 87.329877 21.218830 0.000000 0.000000 0.000000 
0.895049 87.483070 0.060276 0.000000 0.000000 0.000000 -1.507539 -26.005245 0.323181 -21.894214 24.737694 11.808118 22.554688 7.270114 12.320076 -3.588725 0.648597 -14.546722 1.325812 -0.174625 -2.330151 0.000000 0.000000 0.000000 -2.013749 -24.828325 0.455344 -11.812712 -19.560697 -8.769771 24.676160 -0.156838 -10.889055 -14.886182 -1.891842 11.369594 -1.048538 0.534213 0.799138 0.000000 0.000000 0.000000 -0.588718 -26.931257 0.224161 4.209384 -1.760533 1.160954 0.636567 -0.682824 0.153192 1.053661 -0.525029 0.303856 0.000000 0.000000 0.000000 0.751288 -0.820775 0.220829 -2.297211 1.530187 3.342251 17.608986 23.840319 -12.660175 0.000000 0.000000 0.000000 1.321979 -0.753805 0.183660 -0.666680 2.507355 4.058595 -1.565511 0.009300 -0.330454 -53.305556 -2.453301 -49.080384 -11.775083 -87.144594 -11.435250 0.000000 0.000000 0.000000 2.184861 -0.419210 0.043182 -1.093024 -11.004347 10.958327 0.896119 1.888588 0.138079 -63.779863 65.001162 79.134585 -21.088979 87.321605 21.112062 0.000000 0.000000 0.000000 
0.901632 87.467583 0.065048 0.000000 0.000000 0.000000 -1.491553 -26.016534 0.358218 -21.902786 24.822719 11.849781 22.545838 7.243914 12.300949 -3.624621 0.606353 -14.561501 1.325271 -0.176999 -2.326410 0.000000 0.000000 0.000000 -1.995645 -24.820230 0.493651 -11.913580 -19.711709 -8.812016 24.761775 -0.003617 -11.003536 -14.852391 -1.876135 11.433966 -1.107902 0.530545 0.781067 0.000000 0.000000 0.000000 -0.568329 -26.972050 0.267086 4.191353 -1.805944 1.177884 0.614336 -0.695541 0.157793 1.045178 -0.518581 0.294613 0.000000 0.000000 0.000000 0.748801 -0.836109 0.223843 -2.281727 1.541458 3.338366 17.631420 23.856017 -12.680300 0.000000 0.000000 0.000000 1.310281 -0.769307 0.189345 -0.659519 2.499873 3.979219 -1.565758 0.012840 -0.309745 -53.376040 -2.497307 -48.979853 -11.138995 -87.049053 -10.798328 0.000000 0.000000 0.000000 2.176257 -0.434929 0.046489 -1.089172 -10.948844 10.863395 0.894407 1.918887 0.136554 -63.851204 64.979162 79.181878 -20.820881 87.289995 20.846385 0.000000 0.000000 0.000000 
0.902384 87.458778 0.069351 0.000000 0.000000 0.000000 -1.484577 -26.030787 0.388788 -21.885265 24.890118 11.882412 22.512237 7.234705 12.288742 -3.658592 0.590521 -14.572326 1.325583 -0.179493 -2.321955 0.000000 0.000000 0.000000 -1.984845 -24.826715 0.527952 -11.999887 -19.805201 -8.859784 24.841815 0.132482 -11.091881 -14.827335 -1.868943 11.495490 -1.157167 0.527769 0.765224 0.000000 0.000000 0.000000 -0.556653 -27.010562 0.308699 4.168831 -1.853000 1.200784 0.594584 -0.710239 0.166587 1.040521 -0.508802 0.291244 0.000000 0.000000 0.000000 0.748432 -0.854499 0.231061 -2.258998 1.555776 3.320429 17.663450 23.875548 -12.718638 0.000000 0.000000 0.000000 1.302110 -0.787900 0.199688 -0.651770 2.490294 3.902658 -1.564830 0.026683 -0.277612 -53.480436 -2.530491 -48.884367 -10.436884 -86.932476 -10.091009 0.000000 0.000000 0.000000 2.171721 -0.452433 0.053598 -1.085946 -10.871058 10.722317 0.893949 1.945179 0.140414 -63.983682 64.950926 79.307847 -20.379005 87.226953 20.400599 0.000000 0.000000 0.000000 
